<svg width="593" height="580" viewBox="0 0 593 580" fill="none" xmlns="http://www.w3.org/2000/svg">
<path style="mix-blend-mode:hard-light" d="M452.471 199.835C476.006 162.408 484.833 133.369 473.657 120.681C461.719 107.091 429.15 114.741 386.087 138.143C386.325 138.32 386.542 138.506 386.758 138.693C330.852 94.2646 254.873 83.8658 189.573 115.457C115.182 151.445 74.9558 231.968 85.6758 312.986C85.6066 312.516 85.5271 312.025 85.4788 311.545C-1.57458 364.335 3.19305 404.892 102.613 401.699C79.0774 439.126 70.2505 468.166 81.4264 480.853C94.3736 495.597 131.574 485.336 180.126 457.132C210.623 475.255 244.949 484.266 279.075 483.731C304.932 483.329 331.006 477.444 355.734 465.481C421.034 433.891 460.928 367.357 461.331 294.866C464.078 292.875 539.827 251.593 530.462 221.765C525.378 205.547 496.232 198.427 452.461 199.814L452.471 199.835ZM389.701 141.058C424.683 121.803 450.296 115.161 459.277 125.386C473.924 142.037 436.969 193.427 435.537 196.027C423.194 174.076 407.212 155.369 388.782 140.31C389.081 140.562 389.392 140.783 389.691 141.036L389.701 141.058ZM86.1093 316.167C85.8414 314.469 88.7543 341.83 103.267 372.4C105.537 377.183 107.647 381.143 109.749 384.868C21.6596 391.19 9.40087 362.072 86.1199 316.136L86.1093 316.167ZM87.5349 466.771C78.893 456.938 87.0683 433.114 107.694 401.492C114.032 401.181 118.293 400.868 119.707 400.767C132.296 418.917 147.554 434.371 164.621 446.884C162.62 447.799 103.037 484.359 87.5557 466.761L87.5349 466.771ZM515.383 219.92C522.333 242.069 462.614 274.668 460.546 276.145C458.511 253.605 452.759 232.36 443.992 212.759C445.599 210.365 447.227 208.015 449.707 204.166C487.063 202.334 511.446 207.36 515.383 219.92Z" fill="url(#paint0_radial_333_1033)"/>
<path d="M413.614 222.261C416.029 227.349 418.164 232.493 420.017 237.695C421.861 242.821 423.424 248.004 424.747 253.222C427.878 265.706 429.502 278.309 429.682 290.789C429.891 303.652 428.562 316.411 425.834 328.76C423.052 341.373 418.766 353.574 413.083 365.099C405.375 380.785 395.089 395.2 382.479 407.583C370.864 419.035 357.224 428.763 341.814 436.218C321.232 446.175 299.523 451.057 278.013 451.389C256.046 451.73 234.31 447.319 214.174 438.661C181.93 424.806 153.826 400.065 135.718 366.619C134.303 364.016 132.961 361.351 131.672 358.634C125.572 345.784 121.262 332.545 118.646 319.203C116.682 309.23 115.694 299.209 115.568 289.275C114.931 229.216 147.284 171.834 203.441 144.666C250.005 122.138 302.399 125.503 345.13 149.079C352.012 152.881 358.662 157.22 364.996 162.03C382.48 175.364 397.578 192.531 408.88 213.044C410.531 216.037 412.109 219.091 413.593 222.217L413.614 222.261Z" fill="url(#paint1_radial_333_1033)"/>
<path d="M248.707 394.938C248.54 395.072 248.373 395.206 248.206 395.34C243.631 398.614 239.56 392.147 238.35 385.33C237.43 380.097 238.218 374.41 240.867 373.075C241.681 372.682 242.647 372.665 243.797 373.197C257.699 379.684 253.14 391.202 248.686 394.948L248.707 394.938Z" fill="#423E75"/>
<path d="M278.476 451.62C256.513 451.965 234.784 447.56 214.654 438.911C216.56 436.823 219.025 434.941 222.164 433.343C223.06 432.91 223.998 432.456 224.988 432.056C250.681 421.746 259.237 437.611 269.939 442.979C272.36 444.192 274.107 445.44 275.386 446.676C277.304 448.504 278.154 450.239 278.476 451.62Z" fill="#4A3E9E"/>
<g opacity="0.75">
<path d="M302.549 423.89C285.566 418.288 270.662 420.931 266.974 411.774C266.742 411.174 266.551 410.555 266.403 409.862C264.046 398.432 293.198 395.279 304.545 391.503C318.62 386.836 330.236 381.245 341.188 397.969C352.139 414.694 320.628 429.861 302.549 423.89Z" fill="#4A3E9E"/>
<path d="M365.642 355.289C357.501 362.925 344.884 366.125 339.591 361.371C338.922 360.77 338.37 360.034 337.964 359.175C334.33 351.487 351.586 342.232 355.553 333.944C359.414 325.865 363.266 319.555 367.4 317.091C370.939 314.992 374.676 315.75 378.785 320.652C388.151 331.855 374.81 346.685 365.642 355.289Z" fill="#4A3E9E"/>
<path d="M373.649 228.786C369.818 234.328 364.575 240.021 361.013 236.004C359.494 234.306 358.282 230.875 357.612 224.964C355.86 209.723 365.127 197.814 373.667 196.767C376.275 196.436 378.821 197.112 380.951 199.018C393.215 209.912 379.09 220.911 373.649 228.786Z" fill="#4A3E9E"/>
<path d="M209.592 371.536C209.592 371.536 209.507 371.682 209.465 371.755C198.103 387.901 167.723 378.218 165.758 369.727C165.44 368.298 165.338 367.161 165.494 366.19C166.259 361.419 173.014 361.357 186.112 356.792C201.741 351.352 215.957 362.093 209.602 371.557L209.592 371.536Z" fill="#4A3E9E"/>
<path d="M152.57 342.223C152.18 342.861 151.761 343.38 151.322 343.803C146.823 348.085 140.919 339.654 135.316 333.698C130.133 328.2 131.116 324.975 134.017 324.187C134.558 324.033 135.171 323.976 135.814 323.984C146.135 324.282 157.168 334.744 152.57 342.223Z" fill="#4A3E9E"/>
<path d="M413.384 365.514C405.632 381.122 395.311 395.465 382.679 407.786C381.77 407.434 380.872 406.997 380.048 406.445C376.752 404.345 374.354 400.627 375.036 394.163C376.553 379.555 386.296 379.263 396.747 371.152C400.638 368.12 404.027 366.515 406.939 365.798C409.509 365.115 411.655 365.161 413.404 365.504L413.384 365.514Z" fill="#4A3E9E"/>
<path d="M424.772 253.451C431.087 278.764 431.183 304.609 425.773 328.921C423.688 328.838 421.607 328.331 419.593 327.209C419.531 327.186 419.459 327.141 419.418 327.108C405.448 319.086 412.614 301.951 407.438 278.128C404.301 263.701 411.842 257.636 418.274 255.123C420.855 254.092 423.287 253.663 424.751 253.461L424.772 253.451Z" fill="#4A3E9E"/>
<path d="M413.417 222.337C415.824 227.429 417.95 232.576 419.797 237.778C418.132 238.368 416.295 238.59 414.58 237.667C413.991 237.341 413.425 236.899 412.869 236.266C408.368 231.07 403.628 236.185 402.623 229.624C401.637 223.213 403.466 218.917 405.499 216.243C406.652 214.735 407.884 213.718 408.719 213.158C410.365 216.152 411.938 219.209 413.417 222.337Z" fill="#4A3E9E"/>
<path d="M316.135 356.114C316.135 356.114 316.155 356.157 316.165 356.179C318.006 364.622 299.845 370.069 294.538 370.7C288.742 371.381 273.342 368.858 272.801 359.157C272.609 355.718 273.884 353.866 276.03 352.991C281.428 350.709 292.27 354.583 297.624 353.508C307.708 351.5 314.647 349.609 316.156 356.104L316.135 356.114Z" fill="#4A3E9E"/>
<path d="M202.727 406.789C202.641 408.07 202.361 409.156 201.874 410.076C199.568 414.511 192.988 414.617 186.16 412.679C180.479 411.059 175.997 405.853 177.05 403.315C177.507 402.171 179.09 401.567 182.147 402.022C192.04 403.567 203.217 399.216 202.737 406.81L202.727 406.789Z" fill="#4A3E9E"/>
<path d="M385.39 311.675C383.777 315.41 379.54 314.676 376.55 312.575C375.52 311.857 374.656 311.004 374.073 310.096C371.783 306.55 372.248 304.556 378.981 304.775C381.864 304.866 383.864 305.251 385.018 306.069C386.502 307.098 386.62 308.864 385.411 311.665L385.39 311.675Z" fill="#4A3E9E"/>
<path d="M372.2 279.189L371.922 278.98C366.341 274.645 374.797 269.466 376.078 263.675C377.197 258.622 380.733 250.453 385.396 252.195C386.14 252.47 386.934 253.012 387.724 253.872C397.931 264.691 378.341 283.571 372.2 279.189Z" fill="#4A3E9E"/>
<path d="M355.135 403.819C353.513 404.229 350.754 404.127 347.49 399.874C347.193 399.461 346.844 398.994 346.527 398.485C342.859 392.89 339.617 386.032 342.929 384.438C344.596 383.636 347.43 389.632 356.066 392.861C356.997 393.207 357.698 393.77 358.2 394.455C360.385 397.454 358.836 402.885 355.135 403.819Z" fill="#4A3E9E"/>
<path d="M338.843 314.164C337.293 314.62 335.652 314.776 334.045 314.625C323.647 313.526 324.416 291.276 335.649 294.087C336.001 294.182 336.332 294.286 336.704 294.424C353.457 300.629 347.573 311.68 338.843 314.164Z" fill="#4A3E9E"/>
<path d="M248.687 394.927C247.26 394.289 245.806 393.321 244.511 391.826C240.914 387.679 240.813 377.136 240.908 373.065C241.72 372.674 242.685 372.66 243.832 373.194C257.701 379.706 253.136 391.197 248.687 394.927Z" fill="#4A3E9E"/>
</g>
<g opacity="0.7">
<path d="M257.397 380.351C255.73 381.153 258.159 388.4 260.213 388.471C262.287 388.531 264.024 377.162 257.397 380.351Z" fill="#423E75"/>
<path d="M361.791 179.074C354.252 181.806 359.364 190.403 366.943 188.999C374.521 187.594 375.162 174.221 361.791 179.074Z" fill="#423E75"/>
<path d="M395.962 346.072C391.499 348.22 393.426 351.484 399.19 352.901C404.954 354.319 411.727 338.483 395.962 346.072Z" fill="#423E75"/>
<path d="M162.972 338.284C158.515 343.258 164.539 345.933 169.502 345.658C174.465 345.384 169.63 330.877 162.972 338.284Z" fill="#423E75"/>
<path d="M127.614 302.531C124.582 304.835 128.772 309.312 134.162 307.773C139.552 306.234 135.1 296.816 127.614 302.531Z" fill="#423E75"/>
<path d="M354.587 165.149C350.845 168.007 359.866 174.152 361.563 169.134C363.261 164.117 358.329 162.291 354.587 165.149Z" fill="#423E75"/>
<path d="M260.872 340.587C258.177 344.471 266.148 349.583 271.141 345.094C276.135 340.605 266.314 332.714 260.872 340.587Z" fill="#423E75"/>
</g>
<path d="M358.246 394.481C360.424 397.463 358.862 402.878 355.159 403.818C353.536 404.23 350.778 404.135 347.524 399.905C352.823 400.121 356.172 397.35 358.246 394.481Z" fill="#423E75"/>
<path d="M135.336 333.651C130.182 328.134 131.16 324.922 134.048 324.153C134.211 331.309 145.758 340.062 151.279 343.819C146.801 348.066 140.93 339.617 135.357 333.641L135.336 333.651Z" fill="#423E75"/>
<path d="M201.831 410.085C199.515 414.497 192.949 414.583 186.142 412.632C180.479 411.001 176.025 405.802 177.084 403.276C183.341 411.5 195.149 411.119 201.831 410.085Z" fill="#423E75"/>
<path d="M209.551 371.585C209.551 371.585 209.466 371.73 209.423 371.803C198.015 387.844 167.739 378.147 165.813 369.694C165.503 368.271 165.405 367.14 165.565 366.174C169.385 368.278 175.066 370.595 183.473 372.738C196.543 376.06 204.761 374.104 209.561 371.606L209.551 371.585Z" fill="#423E75"/>
<path d="M272.821 359.124C272.645 355.704 273.926 353.864 276.072 352.998C275.015 358.523 276.502 364.248 285.474 366.612C299.499 370.281 310.771 361.559 316.111 356.241C317.91 364.641 299.762 370.025 294.462 370.643C288.675 371.311 273.317 368.774 272.821 359.124Z" fill="#423E75"/>
<path d="M341.216 398.119C352.045 414.716 320.517 429.749 302.514 423.817C285.602 418.251 270.717 420.866 267.091 411.78C277.248 412.801 295.085 416.857 314.536 419.127C342.468 422.384 341.237 398.109 341.237 398.109L341.216 398.119Z" fill="#423E75"/>
<path d="M338.832 314.13C345.343 308.812 339.449 299.077 335.676 294.076C336.027 294.172 336.356 294.278 336.727 294.418C353.414 300.695 347.536 311.694 338.832 314.13Z" fill="#423E75"/>
<path d="M378.832 320.794C388.129 331.956 374.75 346.683 365.564 355.224C357.406 362.803 344.8 365.962 339.538 361.223C342.849 361.424 347.323 361.278 351.497 359.838C359.364 357.133 375.183 345.43 375.391 330.756C375.528 322.291 371.17 318.717 367.486 317.229C371.027 315.148 374.753 315.909 378.832 320.794Z" fill="#423E75"/>
<path d="M385.043 306.152C386.518 307.173 386.625 308.925 385.402 311.703C383.771 315.407 379.548 314.677 376.578 312.592C381.537 312.605 383.966 308.86 385.074 306.163L385.043 306.152Z" fill="#423E75"/>
<path d="M387.738 253.96C397.881 264.754 378.26 283.499 372.149 279.122L371.873 278.913C389.327 268.597 388.412 258.385 385.4 252.295C386.142 252.57 386.932 253.112 387.717 253.97L387.738 253.96Z" fill="#423E75"/>
<path d="M373.6 228.741C369.758 234.249 364.507 239.904 360.967 235.894C364.456 227.299 377.891 218.976 382.109 210.085C385.474 202.966 378.716 198.837 373.762 196.867C376.365 196.545 378.903 197.225 381.021 199.129C393.219 210.013 379.087 220.926 373.631 228.753L373.6 228.741Z" fill="#423E75"/>
<path d="M275.265 446.736C277.165 448.557 278.001 450.282 278.313 451.653C256.42 451.921 234.79 447.476 214.783 438.824C216.697 436.758 219.166 434.898 222.305 433.323C227.442 436.222 234.312 439.499 243.508 443.11C252.23 446.527 263.265 447.478 275.265 446.736Z" fill="#423E75"/>
<path d="M407.004 365.963C409.572 365.287 411.714 365.336 413.458 365.68C405.648 381.185 395.279 395.428 382.613 407.659C381.707 407.307 380.814 406.871 379.994 406.321C393.038 393.101 402.584 375.201 407.004 365.963Z" fill="#423E75"/>
<path d="M424.821 253.561C431.073 278.836 431.13 304.61 425.705 328.829C423.628 328.737 421.556 328.221 419.552 327.092C428.752 303.712 420.897 265.879 418.367 255.187C420.94 254.172 423.362 253.756 424.821 253.561Z" fill="#423E75"/>
<path d="M413.385 222.351C415.784 227.452 417.906 232.606 419.751 237.812C418.11 238.383 416.296 238.585 414.599 237.648C416.172 230.416 409.313 220.798 405.54 216.193C406.672 214.701 407.885 213.7 408.706 213.149C410.344 216.153 411.911 219.216 413.385 222.351Z" fill="#423E75"/>
<path style="mix-blend-mode:multiply" opacity="0.35" d="M413.713 222.389C416.127 227.474 418.26 232.615 420.112 237.812C421.954 242.935 423.515 248.114 424.837 253.33C431.183 278.634 431.303 304.486 425.908 328.821C423.124 341.427 418.837 353.621 413.153 365.14C405.444 380.819 395.157 395.227 382.548 407.605C370.933 419.053 357.295 428.777 341.887 436.231C321.309 446.186 299.604 451.07 278.099 451.406C256.138 451.751 234.409 447.347 214.279 438.699C182.046 424.859 153.954 400.14 135.858 366.717C233.629 471.197 463.478 334.728 365.13 162.227C382.607 175.549 397.697 192.702 408.992 213.201C410.643 216.191 412.22 219.243 413.703 222.367L413.713 222.389Z" fill="url(#paint2_linear_333_1033)"/>
<path style="mix-blend-mode:multiply" opacity="0.55" d="M429.812 290.919C430.017 303.772 428.685 316.52 425.954 328.859C423.17 341.462 418.882 353.654 413.198 365.171C405.488 380.846 395.201 395.251 382.592 407.628C370.978 419.073 357.34 428.796 341.933 436.249C321.355 446.204 299.652 451.088 278.15 451.426C256.19 451.773 234.463 447.372 214.337 438.727C182.107 424.893 154.02 400.182 135.928 366.769C134.514 364.169 133.173 361.507 131.885 358.793C125.791 345.955 121.486 332.729 118.875 319.398C176.49 366.455 309.528 444.457 429.801 290.898L429.812 290.919Z" fill="url(#paint3_linear_333_1033)"/>
<path d="M422.266 215.179C418.405 215.303 414.407 215.52 410.264 215.807C408.655 215.925 407.014 216.032 405.363 216.17C404.449 217.484 403.514 218.807 402.527 220.129C405.799 219.788 408.977 219.519 412.062 219.268C414.762 219.072 417.399 218.905 419.953 218.779C451.017 217.225 471.282 221.367 474.547 231.803C478.136 243.244 460.528 260.182 428.919 278.504C403.984 292.964 370.303 308.274 331.464 322.487C320.263 326.583 308.606 330.582 296.628 334.447C293.985 335.302 291.311 336.147 288.606 336.979C234.405 353.921 183.805 364.631 145.5 368.314C143.879 368.464 142.28 368.604 140.701 368.733C139.497 368.841 138.334 368.928 137.15 369.025C102.299 371.565 79.3142 367.576 75.8165 356.434C72.3693 345.453 88.4022 329.462 117.565 312.033C117.368 310.755 117.192 309.467 117.047 308.19C81.5404 329.69 61.8365 350.309 66.4059 364.84C70.621 378.302 94.8359 384.179 131.231 383.004C132.622 382.965 134.024 382.894 135.457 382.835C138.686 382.673 142.029 382.482 145.414 382.218C179.705 379.632 222.529 371.704 268.664 358.716C276.716 356.46 284.893 354.037 293.124 351.457C296.849 350.289 300.522 349.12 304.175 347.908C353.689 331.728 397.281 312.682 429.546 294.07C469.341 271.13 491.903 248.813 487.05 233.362C482.835 219.9 458.62 214.024 422.225 215.199L422.266 215.179Z" fill="url(#paint4_linear_333_1033)"/>
<path d="M439.92 149.362C430.002 138.084 402.908 144.446 367.093 163.909C368.114 164.711 369.104 165.501 370.094 166.344C399.196 150.339 420.501 144.794 427.97 153.291C435.553 161.918 427.553 183.501 408.193 211.98C407.279 213.348 406.323 214.735 405.346 216.133C404.433 217.447 403.498 218.772 402.512 220.095C379.847 251.6 344.928 290.222 302.866 328.808C300.774 330.718 298.704 332.619 296.644 334.487C287.243 342.973 277.908 351.058 268.691 358.741C237.296 384.924 207.529 406.168 182.739 420.511C150.47 439.185 126.631 446.141 118.647 437.047C111.456 428.865 118.268 409.099 135.441 382.814C134.008 382.873 132.606 382.943 131.215 382.981C111.637 414.077 104.281 438.205 113.54 448.744C124.301 460.989 155.254 452.444 195.637 429C227.677 410.384 265.668 382.386 304.198 347.914C307.073 345.333 309.97 342.742 312.835 340.087C319.225 334.221 325.438 328.36 331.496 322.496C366.556 288.433 395.498 254.712 415.193 225.859C416.842 223.449 418.429 221.069 419.953 218.719C420.741 217.518 421.498 216.306 422.266 215.115C441.865 184.009 449.199 159.891 439.94 149.352L439.92 149.362Z" fill="url(#paint5_linear_333_1033)"/>
<path style="mix-blend-mode:hard-light" d="M344.783 148.875C323.459 141.641 269.935 122.998 199.543 165.814C135.764 204.639 119.57 262.231 115.306 288.869C114.723 228.979 147.097 171.728 203.224 144.584C249.764 122.077 302.104 125.384 344.773 148.854L344.783 148.875Z" fill="url(#paint6_linear_333_1033)"/>
<defs>
<radialGradient id="paint0_radial_333_1033" cx="0" cy="0" r="1" gradientUnits="userSpaceOnUse" gradientTransform="translate(272.648 290.458) rotate(-25.8165) scale(177.6 182.863)">
<stop stop-color="#C7F1F6"/>
<stop offset="1" stop-color="#D3F4F9" stop-opacity="0"/>
</radialGradient>
<radialGradient id="paint1_radial_333_1033" cx="0" cy="0" r="1" gradientUnits="userSpaceOnUse" gradientTransform="translate(216.124 222.917) rotate(-25.8172) scale(276.059 284.409)">
<stop stop-color="#31E7C2"/>
<stop offset="1" stop-color="#652FB0"/>
</radialGradient>
<linearGradient id="paint2_linear_333_1033" x1="442.584" y1="461.326" x2="186.911" y2="216.482" gradientUnits="userSpaceOnUse">
<stop stop-color="#4A3E9E"/>
<stop offset="1" stop-color="#4AE09E" stop-opacity="0.5"/>
</linearGradient>
<linearGradient id="paint3_linear_333_1033" x1="362.016" y1="464.621" x2="231.59" y2="247.171" gradientUnits="userSpaceOnUse">
<stop stop-color="#3D3789"/>
<stop offset="1" stop-color="#3DCC5E" stop-opacity="0.2"/>
</linearGradient>
<linearGradient id="paint4_linear_333_1033" x1="310.536" y1="381.483" x2="252.141" y2="240.634" gradientUnits="userSpaceOnUse">
<stop stop-color="#83ECEC"/>
<stop offset="1" stop-color="#8EE2D3" stop-opacity="0.3"/>
</linearGradient>
<linearGradient id="paint5_linear_333_1033" x1="311.971" y1="340.479" x2="245.827" y2="265.842" gradientUnits="userSpaceOnUse">
<stop stop-color="#83ECEC"/>
<stop offset="1" stop-color="#8EE2D3" stop-opacity="0.3"/>
</linearGradient>
<linearGradient id="paint6_linear_333_1033" x1="185.305" y1="125.846" x2="224.697" y2="206.233" gradientUnits="userSpaceOnUse">
<stop stop-color="#C7F1F6"/>
<stop offset="1" stop-color="#D3F4F9" stop-opacity="0"/>
</linearGradient>
</defs>
</svg>
