<svg width="104" height="104" viewBox="0 0 104 104" fill="none" xmlns="http://www.w3.org/2000/svg">
<path d="M100.525 76.8L84.8711 40.25C79.5699 27.85 69.8177 27.35 63.2662 39.15L53.814 56.2C49.0129 64.85 40.0609 65.6 33.8594 57.85L32.7592 56.45C26.3077 48.35 17.2056 49.35 12.5546 58.6L3.95261 75.85C-2.09877 87.85 6.65323 102 20.0563 102H83.8709C96.8738 102 105.626 88.75 100.525 76.8ZM26.9579 32C30.937 32 34.7532 30.4196 37.5669 27.6066C40.3806 24.7936 41.9613 20.9782 41.9613 17C41.9613 13.0218 40.3806 9.20644 37.5669 6.3934C34.7532 3.58035 30.937 2 26.9579 2C22.9787 2 19.1625 3.58035 16.3488 6.3934C13.5352 9.20644 11.9544 13.0218 11.9544 17C11.9544 20.9782 13.5352 24.7936 16.3488 27.6066C19.1625 30.4196 22.9787 32 26.9579 32V32Z" stroke="white" stroke-width="3" stroke-linecap="round" stroke-linejoin="round"/>
</svg>
