<svg width="27" height="30" viewBox="0 0 27 30" fill="none" xmlns="http://www.w3.org/2000/svg">
<path d="M24.1938 5.61458L15.5313 0.6125C14.1167 -0.204167 12.3667 -0.204167 10.9375 0.6125L2.28959 5.61458C1.59217 6.01894 1.01345 6.59971 0.611556 7.29855C0.209662 7.99738 -0.00125116 8.78967 5.5836e-06 9.59583V19.5708C5.5836e-06 21.2042 0.875005 22.7208 2.28959 23.5521L10.9521 28.5542C12.3667 29.3708 14.1167 29.3708 15.5458 28.5542L24.2083 23.5521C24.9058 23.1477 25.4845 22.567 25.8864 21.8681C26.2883 21.1693 26.4992 20.377 26.4979 19.5708V9.59583C26.4916 8.78949 26.2759 7.99862 25.872 7.30071C25.468 6.6028 24.8898 6.02178 24.1938 5.61458ZM12.1479 8.38542C12.1479 7.7875 12.6438 7.29167 13.2417 7.29167C13.8396 7.29167 14.3354 7.7875 14.3354 8.38542V16.0417C14.3354 16.6396 13.8396 17.1354 13.2417 17.1354C12.6438 17.1354 12.1479 16.6396 12.1479 16.0417V8.38542ZM14.5833 21.3354C14.5104 21.5104 14.4083 21.6708 14.2771 21.8167C14.0731 22.0207 13.8126 22.1589 13.5293 22.2135C13.2459 22.2681 12.9527 22.2366 12.6875 22.1229C12.4979 22.05 12.3521 21.9479 12.2063 21.8167C12.075 21.6708 11.9729 21.5104 11.8854 21.3354C11.8152 21.1592 11.7805 20.9709 11.7833 20.7812C11.7833 20.4021 11.9292 20.0229 12.2063 19.7458C12.3521 19.6146 12.4979 19.5125 12.6875 19.4396C13.2271 19.2062 13.8688 19.3375 14.2771 19.7458C14.4083 19.8917 14.5104 20.0375 14.5833 20.2271C14.6563 20.4021 14.7 20.5917 14.7 20.7812C14.7 20.9708 14.6563 21.1604 14.5833 21.3354Z" fill="black"/>
</svg>
