<svg width="22" height="25" viewBox="0 0 22 25" fill="none" xmlns="http://www.w3.org/2000/svg">
<path d="M21.5375 17.2606C21.4425 17.149 21.3492 17.0374 21.2576 16.9297C19.9982 15.4448 19.2363 14.5485 19.2363 10.3449C19.2363 8.16853 18.7022 6.38281 17.6495 5.04353C16.8733 4.05413 15.824 3.30357 14.441 2.74888C14.4232 2.73923 14.4074 2.72657 14.3941 2.7115C13.8967 1.08761 12.5354 0 11.0001 0C9.46487 0 8.1042 1.08761 7.60675 2.70982C7.59348 2.72434 7.57781 2.7366 7.56039 2.74609C4.333 4.04129 2.76454 6.52623 2.76454 10.3432C2.76454 14.5485 2.00377 15.4448 0.743273 16.928C0.651684 17.0357 0.558377 17.1451 0.463353 17.2589C0.217894 17.5475 0.0623751 17.8986 0.0152022 18.2706C-0.0319707 18.6427 0.0311766 19.0201 0.197171 19.3583C0.550363 20.0837 1.30311 20.534 2.16234 20.534H19.8442C20.6995 20.534 21.4471 20.0843 21.8014 19.3622C21.9681 19.0239 22.0319 18.6462 21.9851 18.2737C21.9383 17.9012 21.783 17.5497 21.5375 17.2606ZM11.0001 25C11.8273 24.9993 12.6389 24.7805 13.3488 24.3665C14.0587 23.9526 14.6405 23.3591 15.0324 22.649C15.0508 22.615 15.0599 22.5769 15.0588 22.5384C15.0577 22.4999 15.0464 22.4623 15.026 22.4294C15.0056 22.3964 14.9768 22.3691 14.9424 22.3502C14.908 22.3313 14.8692 22.3214 14.8297 22.3214H7.1717C7.13216 22.3213 7.09326 22.3311 7.05878 22.35C7.02431 22.3689 6.99543 22.3961 6.97497 22.4291C6.95451 22.4621 6.94316 22.4997 6.94202 22.5382C6.94089 22.5768 6.95001 22.6149 6.96849 22.649C7.36034 23.3591 7.942 23.9525 8.65179 24.3664C9.36159 24.7803 10.1731 24.9992 11.0001 25Z" fill="#4ACD8D"/>
</svg>
