<svg width="30" height="30" viewBox="0 0 30 30" fill="none" xmlns="http://www.w3.org/2000/svg">
<path d="M7.01602 0.565731L7.01623 0.565673C7.8805 0.329558 8.78195 0.747575 9.16168 1.54823V1.54852L9.20014 1.64083L11.5438 7.26558L11.5439 7.26578C11.8571 8.01663 11.6409 8.8825 11.0092 9.39893C11.0092 9.39893 11.0092 9.39894 11.0092 9.39894L8.12068 11.7602L7.81796 12.0076L7.98514 12.3611C9.98568 16.5904 13.4096 20.0143 17.6389 22.0149L17.9919 22.1818L18.2395 21.8798L20.6066 18.9913L20.6083 18.9891C21.1178 18.3603 21.988 18.1424 22.7401 18.4561L22.7403 18.4562L28.365 20.7999L28.3661 20.8003C29.2223 21.1547 29.6787 22.0892 29.4343 22.9838L29.4343 22.984L28.0285 28.1386C28.0284 28.1388 28.0284 28.139 28.0283 28.1392C27.8062 28.9432 27.0766 29.5 26.2488 29.5C12.0295 29.5 0.5 17.9705 0.5 3.75116C0.5 2.92338 1.0568 2.19382 1.86072 1.97172C1.86095 1.97166 1.86118 1.9716 1.8614 1.97153L7.01602 0.565731Z" stroke="white"/>
</svg>
