<svg width="31" height="31" viewBox="0 0 31 31" fill="none" xmlns="http://www.w3.org/2000/svg">
<path d="M21.6104 0.916672H9.3896C4.08127 0.916672 0.916687 4.08125 0.916687 9.38959V21.6104C0.916687 25.7083 2.79794 28.5229 6.10835 29.5875C7.07085 29.9229 8.17919 30.0833 9.3896 30.0833H21.6104C22.8209 30.0833 23.9292 29.9229 24.8917 29.5875C28.2021 28.5229 30.0834 25.7083 30.0834 21.6104V9.38959C30.0834 4.08125 26.9188 0.916672 21.6104 0.916672ZM27.8959 21.6104C27.8959 24.7313 26.6709 26.7 24.2063 27.5167C22.7917 24.7313 19.4375 22.7479 15.5 22.7479C11.5625 22.7479 8.22294 24.7167 6.79377 27.5167H6.77919C4.34377 26.7292 3.10419 24.7458 3.10419 21.625V9.38959C3.10419 5.27709 5.2771 3.10417 9.3896 3.10417H21.6104C25.7229 3.10417 27.8959 5.27709 27.8959 9.38959V21.6104V21.6104Z" fill="black"/>
<path d="M15.5029 9.66667C12.6154 9.66667 10.2821 12 10.2821 14.8875C10.2821 17.775 12.6154 20.1229 15.5029 20.1229C18.3904 20.1229 20.7238 17.775 20.7238 14.8875C20.7238 12 18.3904 9.66667 15.5029 9.66667Z" fill="black"/>
</svg>
