<svg width="27" height="31" viewBox="0 0 27 31" fill="none" xmlns="http://www.w3.org/2000/svg">
<path d="M25.1083 11.0637C24.1312 9.98458 22.6583 9.3575 20.6166 9.13875V8.03042C20.6166 6.0325 19.7708 4.1075 18.2833 2.76583C17.5493 2.09288 16.6814 1.58262 15.7364 1.26847C14.7915 0.954322 13.7908 0.843381 12.8 0.942916C9.31456 1.27833 6.38331 4.64708 6.38331 8.29292V9.13875C4.34164 9.3575 2.86873 9.98458 1.89164 11.0637C0.477058 12.6387 0.520809 14.7387 0.681225 16.1971L1.70206 24.32C2.00831 27.1637 3.16039 30.0804 9.43123 30.0804H17.5687C23.8396 30.0804 24.9916 27.1637 25.2979 24.3346L26.3187 16.1825C26.4791 14.7387 26.5083 12.6387 25.1083 11.0637ZM13.0041 2.97C13.7109 2.89901 14.4247 2.97708 15.0994 3.19918C15.7741 3.42127 16.3947 3.78245 16.9211 4.25936C17.4475 4.73628 17.8679 5.31833 18.1553 5.9679C18.4427 6.61747 18.5907 7.32011 18.5896 8.03042V9.05125H8.41039V8.29292C8.41039 5.69708 10.5541 3.20333 13.0041 2.97ZM8.27914 17.1742H8.26456C7.46248 17.1742 6.80623 16.5179 6.80623 15.7158C6.80623 14.9137 7.46248 14.2575 8.26456 14.2575C9.08123 14.2575 9.73748 14.9137 9.73748 15.7158C9.73748 16.5179 9.08123 17.1742 8.27914 17.1742ZM18.4875 17.1742H18.4729C17.6708 17.1742 17.0146 16.5179 17.0146 15.7158C17.0146 14.9137 17.6708 14.2575 18.4729 14.2575C19.2896 14.2575 19.9458 14.9137 19.9458 15.7158C19.9458 16.5179 19.2896 17.1742 18.4875 17.1742Z" fill="black"/>
</svg>
