<svg width="35" height="35" viewBox="0 0 35 35" fill="none" xmlns="http://www.w3.org/2000/svg">
<path d="M30.4208 12.2063L20.3146 4.12709C18.7541 2.87292 16.2312 2.87292 14.6854 4.1125L4.57915 12.2063C3.44165 13.1104 2.71248 15.0208 2.9604 16.45L4.89998 28.0583C5.24998 30.1292 7.23331 31.8063 9.33331 31.8063H25.6666C27.7521 31.8063 29.75 30.1146 30.1 28.0583L32.0396 16.45C32.2729 15.0208 31.5437 13.1104 30.4208 12.2063ZM17.5 22.6042C16.533 22.6042 15.6057 22.2201 14.922 21.5363C14.2383 20.8526 13.8541 19.9253 13.8541 18.9583C13.8541 17.9914 14.2383 17.0641 14.922 16.3803C15.6057 15.6966 16.533 15.3125 17.5 15.3125C18.4669 15.3125 19.3942 15.6966 20.078 16.3803C20.7617 17.0641 21.1458 17.9914 21.1458 18.9583C21.1458 19.9253 20.7617 20.8526 20.078 21.5363C19.3942 22.2201 18.4669 22.6042 17.5 22.6042Z" fill="black"/>
</svg>
