<svg width="30" height="30" viewBox="0 0 30 30" fill="none" xmlns="http://www.w3.org/2000/svg">
<path d="M29.1938 15.8254L29.195 15.824C29.3825 15.6231 29.5 15.3265 29.5 15C29.5 14.6735 29.3825 14.3769 29.195 14.176L29.1938 14.1746L20.7566 5.0678L29.1938 15.8254ZM29.1938 15.8254L20.7566 24.9322L29.1938 15.8254ZM19.25 11.2143H18.75H11.25C10.5497 11.2143 9.875 11.8832 9.875 12.8571V17.1429C9.875 18.1168 10.5497 18.7857 11.25 18.7857H18.75H19.25V19.2857V24.1071C19.25 24.5858 19.4981 24.9727 19.8209 25.132C20.1254 25.2823 20.4867 25.2227 20.7563 24.9325L19.25 11.2143ZM19.25 11.2143V10.7143M19.25 11.2143V10.7143M19.25 10.7143V5.89286C19.25 5.41978 19.4991 5.02683 19.8209 4.86802C20.1254 4.71774 20.4867 4.77726 20.7563 5.06749L19.25 10.7143ZM10.75 2.14286C10.75 3.11679 10.0753 3.78571 9.375 3.78571H5.625C4.25112 3.78571 3.25 5.03196 3.25 6.42857V23.5714C3.25 24.968 4.25112 26.2143 5.625 26.2143H9.375C10.0753 26.2143 10.75 26.8832 10.75 27.8571C10.75 28.8311 10.0753 29.5 9.375 29.5H5.625C2.8563 29.5 0.5 26.9092 0.5 23.5714V6.42857C0.5 3.0908 2.8563 0.5 5.625 0.5H9.375C10.0753 0.5 10.75 1.16893 10.75 2.14286Z" stroke="white"/>
</svg>
