<svg width="31" height="31" viewBox="0 0 31 31" fill="none" xmlns="http://www.w3.org/2000/svg">
<path d="M8.5 0.916656H12.2917C16.9583 0.916656 19.875 3.83332 19.875 8.49999V14.4062H10.7604C10.1625 14.4062 9.66667 14.9021 9.66667 15.5C9.66667 16.0979 10.1625 16.5937 10.7604 16.5937H19.875V22.5C19.875 27.1667 16.9583 30.0833 12.2917 30.0833H8.51458C3.84792 30.0833 0.93125 27.1667 0.93125 22.5V8.49999C0.916666 3.83332 3.83333 0.916656 8.5 0.916656Z" fill="black"/>
<path d="M26.3486 14.4062L23.3298 11.3875C23.1111 11.1687 23.009 10.8917 23.009 10.6146C23.009 10.3375 23.1111 10.0458 23.3298 9.84165C23.5356 9.63824 23.8133 9.52417 24.1027 9.52417C24.3921 9.52417 24.6698 9.63824 24.8756 9.84165L29.7611 14.7271C30.184 15.15 30.184 15.85 29.7611 16.2729L24.8756 21.1583C24.4527 21.5812 23.7527 21.5812 23.3298 21.1583C22.9069 20.7354 22.9069 20.0354 23.3298 19.6125L26.3486 16.5937H19.8736V14.4062H26.3486Z" fill="black"/>
</svg>
