<svg width="23" height="23" viewBox="0 0 23 23" fill="none" xmlns="http://www.w3.org/2000/svg">
<path d="M19.0174 0.229492H16.876C14.4191 0.229492 13.1229 1.52547 13.1229 3.98219V6.12337C13.1229 8.58009 14.4191 9.87607 16.876 9.87607H19.0174C21.4744 9.87607 22.7705 8.58009 22.7705 6.12337V3.98219C22.7705 1.52547 21.4744 0.229492 19.0174 0.229492ZM6.13524 13.1104H3.99385C1.52561 13.1104 0.229507 14.4064 0.229507 16.8631V19.0043C0.229507 21.4722 1.52561 22.7682 3.98258 22.7682H6.12397C8.58094 22.7682 9.87705 21.4722 9.87705 19.0155V16.8743C9.88832 14.4064 8.59221 13.1104 6.13524 13.1104ZM5.06455 9.89861C5.69949 9.89861 6.32823 9.77356 6.91484 9.5306C7.50145 9.28764 8.03446 8.93153 8.48344 8.4826C8.93241 8.03367 9.28856 7.50071 9.53154 6.91415C9.77453 6.3276 9.89959 5.69893 9.89959 5.06405C9.89959 4.42917 9.77453 3.8005 9.53154 3.21394C9.28856 2.62739 8.93241 2.09443 8.48344 1.6455C8.03446 1.19657 7.50145 0.84046 6.91484 0.597501C6.32823 0.354542 5.69949 0.229492 5.06455 0.229492C3.78222 0.229492 2.5524 0.738846 1.64566 1.6455C0.738912 2.55216 0.229507 3.78184 0.229507 5.06405C0.229507 6.34625 0.738912 7.57594 1.64566 8.4826C2.5524 9.38925 3.78222 9.89861 5.06455 9.89861ZM17.9354 22.7705C19.2178 22.7705 20.4476 22.2611 21.3543 21.3545C22.2611 20.4478 22.7705 19.2181 22.7705 17.9359C22.7705 16.6537 22.2611 15.424 21.3543 14.5174C20.4476 13.6107 19.2178 13.1014 17.9354 13.1014C16.6531 13.1014 15.4233 13.6107 14.5166 14.5174C13.6098 15.424 13.1004 16.6537 13.1004 17.9359C13.1004 19.2181 13.6098 20.4478 14.5166 21.3545C15.4233 22.2611 16.6531 22.7705 17.9354 22.7705Z" fill="black"/>
</svg>
