<svg width="34" height="35" viewBox="0 0 34 35" fill="none" xmlns="http://www.w3.org/2000/svg">
<path d="M33.3218 11.2609L33.3256 11.2571C33.0511 10.58 32.7305 9.92613 32.3679 9.29116L32.0432 8.748C32.0425 8.74695 32.0419 8.7459 32.0412 8.74485C31.5907 8.01645 31.0851 7.32701 30.5312 6.67657C30.2575 6.35732 29.7809 6.22625 29.3328 6.36464L29.3326 6.36469L25.4082 7.57489L25.1655 7.64973L24.9619 7.49787C24.0522 6.81928 23.0476 6.25281 21.9755 5.82478L21.731 5.7272L21.6731 5.47045L20.7925 1.56678C20.7925 1.56676 20.7925 1.56673 20.7925 1.56671C20.6943 1.13307 20.3549 0.802007 19.9197 0.733161L19.918 0.732893C18.9721 0.579892 17.9983 0.5 17.0035 0.5C16.0087 0.5 15.0361 0.579895 14.0924 0.739169L14.0873 0.740024L14.0873 0.739998C13.6522 0.808845 13.3128 1.13992 13.2145 1.57357C13.2145 1.57359 13.2145 1.5736 13.2145 1.57362L12.3339 5.47729L12.276 5.73403L12.0316 5.83162C10.9595 6.25964 9.95483 6.82612 9.04512 7.50471L8.84153 7.65657L8.59882 7.58172L4.67446 6.37153L4.67429 6.37147C4.22219 6.23188 3.74863 6.36035 3.47767 6.68124L3.4763 6.68286C2.92218 7.33346 2.41651 8.02309 1.9658 8.7517L1.63914 9.29804C1.22245 10.0277 0.861235 10.7823 0.561635 11.5685C0.41655 11.9519 0.532232 12.3982 0.873775 12.696L0.876127 12.6981L0.87612 12.6981L3.92683 15.392L4.12751 15.5692L4.09128 15.8344C4.01667 16.3808 3.97611 16.9393 3.97611 17.5034C3.97611 18.0674 4.01665 18.6262 4.09139 19.1801L4.12712 19.4449L3.92683 19.6217L0.87612 22.3156L0.873782 22.3177C0.532189 22.6155 0.416521 23.0619 0.561691 23.4453C0.861277 24.2315 1.22247 24.986 1.63912 25.7156L1.96582 26.262C2.41642 26.9904 2.92194 27.6799 3.47589 28.3303C3.7496 28.6495 4.22603 28.7806 4.67414 28.6422C4.67419 28.6422 4.67424 28.6422 4.67429 28.6422L8.59077 27.4254L8.83396 27.3499L9.03807 27.5021C9.94778 28.1807 10.9524 28.7472 12.0245 29.1752L12.269 29.2728L12.3269 29.5296L13.2075 33.4332L33.3218 11.2609ZM33.3218 11.2609L33.4382 11.5681M33.3218 11.2609L33.4382 11.5681M33.4382 11.5681C33.5835 11.9515 33.4679 12.3981 33.1262 12.696L33.1239 12.6981M33.4382 11.5681L33.1239 12.6981M33.1239 12.6981L30.0732 15.392L29.8725 15.5692M33.1239 12.6981L29.8725 15.5692M29.8725 15.5692L29.9087 15.8344M29.8725 15.5692L29.9087 15.8344M29.9087 15.8344C29.9833 16.3808 30.0239 16.9393 30.0239 17.5034C30.0239 18.0675 29.9833 18.6261 29.9087 19.1724L29.8725 19.4377M29.9087 15.8344L29.8725 19.4377M29.8725 19.4377L30.0732 19.6149M29.8725 19.4377L30.0732 19.6149M30.0732 19.6149L33.1239 22.3088L33.1262 22.3108M30.0732 19.6149L33.1262 22.3108M33.1262 22.3108C33.4678 22.6087 33.5835 23.0551 33.4383 23.4385C33.1387 24.2247 32.7775 24.9792 32.3608 25.7088L32.0361 26.252C32.0355 26.2531 32.0348 26.2541 32.0342 26.2552C31.5835 26.9838 31.0778 27.6734 30.5237 28.324L30.5223 28.3256M33.1262 22.3108L30.5223 28.3256M30.5223 28.3256C30.2514 28.6465 29.7778 28.775 29.3257 28.6354L29.3255 28.6353M30.5223 28.3256L29.3255 28.6353M29.3255 28.6353L25.4012 27.4251L25.1585 27.3503M29.3255 28.6353L25.1585 27.3503M25.1585 27.3503L24.9549 27.5021M25.1585 27.3503L24.9549 27.5021M24.9549 27.5021C24.0452 28.1807 23.0405 28.7472 21.9684 29.1752L21.724 29.2728M24.9549 27.5021L21.724 29.2728M21.724 29.2728L21.6661 29.5296M21.724 29.2728L21.6661 29.5296M21.6661 29.5296L20.7855 33.4332L21.6661 29.5296ZM19.911 34.2671L19.9127 34.2668C20.3477 34.198 20.687 33.8671 20.7854 33.4336L19.911 34.2671ZM19.911 34.2671C18.965 34.4201 17.9913 34.5 16.9965 34.5C16.0017 34.5 15.0279 34.4201 14.082 34.2671L14.0803 34.2668M19.911 34.2671L14.0803 34.2668M14.0803 34.2668C13.6453 34.198 13.3059 33.8671 13.2076 33.4336L14.0803 34.2668ZM17.0035 23.4732C20.3795 23.4732 23.1399 20.8157 23.1399 17.5034C23.1399 14.1912 20.3795 11.5336 17.0035 11.5336C13.6275 11.5336 10.8671 14.1912 10.8671 17.5034C10.8671 20.8157 13.6275 23.4732 17.0035 23.4732Z" stroke="white"/>
</svg>
