<svg width="22" height="22" viewBox="0 0 22 22" fill="none" xmlns="http://www.w3.org/2000/svg">
<path d="M16 9H18C20 9 21 8 21 6V4C21 2 20 1 18 1H16C14 1 13 2 13 4V6C13 8 14 9 16 9ZM4 21H6C8 21 9 20 9 18V16C9 14 8 13 6 13H4C2 13 1 14 1 16V18C1 20 2 21 4 21ZM5 9C6.06087 9 7.07828 8.57857 7.82843 7.82843C8.57857 7.07828 9 6.06087 9 5C9 3.93913 8.57857 2.92172 7.82843 2.17157C7.07828 1.42143 6.06087 1 5 1C3.93913 1 2.92172 1.42143 2.17157 2.17157C1.42143 2.92172 1 3.93913 1 5C1 6.06087 1.42143 7.07828 2.17157 7.82843C2.92172 8.57857 3.93913 9 5 9V9ZM17 21C18.0609 21 19.0783 20.5786 19.8284 19.8284C20.5786 19.0783 21 18.0609 21 17C21 15.9391 20.5786 14.9217 19.8284 14.1716C19.0783 13.4214 18.0609 13 17 13C15.9391 13 14.9217 13.4214 14.1716 14.1716C13.4214 14.9217 13 15.9391 13 17C13 18.0609 13.4214 19.0783 14.1716 19.8284C14.9217 20.5786 15.9391 21 17 21Z" stroke="black" stroke-width="1.5" stroke-miterlimit="10" stroke-linecap="round" stroke-linejoin="round"/>
</svg>
