<svg width="10" height="10" viewBox="0 0 10 10" fill="none" xmlns="http://www.w3.org/2000/svg">
<path d="M4.99998 0.833344C3.90832 0.833344 3.02082 1.72084 3.02082 2.81251C3.02082 3.88334 3.85832 4.75001 4.94998 4.78751C4.98332 4.78334 5.01665 4.78334 5.04165 4.78751H5.07082C5.58305 4.77042 6.06856 4.55479 6.42469 4.18622C6.78082 3.81765 6.97965 3.32503 6.97915 2.81251C6.97915 1.72084 6.09165 0.833344 4.99998 0.833344ZM7.11665 5.90001C5.95415 5.12501 4.05832 5.12501 2.88748 5.90001C2.35832 6.25001 2.06665 6.72918 2.06665 7.24168C2.06665 7.75418 2.35832 8.22918 2.88332 8.57918C3.46665 8.97084 4.23332 9.16668 4.99998 9.16668C5.76665 9.16668 6.53332 8.97084 7.11665 8.57918C7.64165 8.22501 7.93332 7.75001 7.93332 7.23334C7.92915 6.72501 7.64165 6.24584 7.11665 5.90001ZM5.97082 6.90001L4.92082 7.95001C4.8967 7.97396 4.86808 7.99291 4.83662 8.00578C4.80516 8.01865 4.77147 8.02518 4.73748 8.02501C4.67082 8.02501 4.60415 7.99584 4.55415 7.95001L4.02915 7.42501C3.98111 7.37608 3.95419 7.31025 3.95419 7.24168C3.95419 7.1731 3.98111 7.10727 4.02915 7.05834C4.12915 6.95834 4.29582 6.95834 4.39582 7.05834L4.73748 7.40001L5.60415 6.53334C5.70415 6.43334 5.87082 6.43334 5.97082 6.53334C6.07498 6.63334 6.07498 6.80001 5.97082 6.90001Z" fill="#11A65D"/>
</svg>
