<svg width="35" height="35" viewBox="0 0 35 35" fill="none" xmlns="http://www.w3.org/2000/svg">
<path d="M34.4932 17.4167L34.4908 17.4412V17.4658C34.4908 18.4686 33.757 19.1602 33.0462 19.1602H31.1016H30.5997L30.6016 19.6621L30.6441 30.6113C30.6441 30.6116 30.6441 30.6119 30.6441 30.6123C30.6441 30.775 30.6334 30.942 30.6162 31.1159L30.6138 31.1404V31.165V32.2656C30.6138 33.5572 29.6961 34.5 28.683 34.5H27.7107C27.6397 34.5 27.5983 34.4996 27.561 34.4958L27.5156 34.4911L27.4701 34.4948C27.4083 34.4997 27.3433 34.5 27.2549 34.5H25.2799H23.8215C22.8083 34.5 21.8907 33.5572 21.8907 32.2656V30.625V26.25C21.8907 24.8208 20.8516 23.5625 19.4461 23.5625H15.5569C14.1514 23.5625 13.1123 24.8208 13.1123 26.25V30.625V32.2656C13.1123 33.5572 12.1947 34.5 11.1815 34.5H9.72305H7.78452C7.71522 34.5 7.64277 34.4948 7.54845 34.4877L7.50639 34.4846L7.46439 34.4885C7.38748 34.4957 7.3379 34.5 7.29229 34.5H6.31998C5.30683 34.5 4.38922 33.5572 4.38922 32.2656V24.6094C4.38922 24.5425 4.38966 24.4996 4.39288 24.4671L4.3953 24.4426V24.418V19.6602V19.1602H3.8953H1.94461C1.18156 19.1602 0.5 18.485 0.5 17.4658C0.5 16.9662 0.642037 16.5448 0.970619 16.1696L16.5389 0.903881L16.5512 0.891882L16.5626 0.879073C16.8513 0.554294 17.1652 0.5 17.5258 0.5C17.8529 0.5 18.2041 0.606033 18.4556 0.839169L33.9708 16.1807L33.9716 16.1815C34.3762 16.5798 34.5359 16.985 34.4932 17.4167Z" stroke="white"/>
</svg>
