<svg width="27" height="30" viewBox="0 0 27 30" fill="none" xmlns="http://www.w3.org/2000/svg">
<path d="M23.4938 4.98385L15.9542 0.623437C14.5104 -0.207812 12.25 -0.207812 10.8062 0.623437L3.19375 5.01302C0.175 7.05469 0 7.36094 0 10.613V18.5318C0 21.7839 0.175 22.1047 3.25208 24.1755L10.7917 28.5359C11.5208 28.9589 12.4542 29.163 13.3729 29.163C14.2917 29.163 15.225 28.9589 15.9396 28.5359L23.5521 24.1464C26.5708 22.1047 26.7458 21.7984 26.7458 18.5464V10.613C26.7458 7.36094 26.5708 7.05469 23.4938 4.98385ZM13.3729 19.3193C10.7625 19.3193 8.63333 17.1901 8.63333 14.5797C8.63333 11.9693 10.7625 9.8401 13.3729 9.8401C15.9833 9.8401 18.1125 11.9693 18.1125 14.5797C18.1125 17.1901 15.9833 19.3193 13.3729 19.3193Z" fill="black"/>
</svg>
